<?xml version="1.0" encoding="UTF-8"?>
<svg id="Layer_2" data-name="Layer 2" xmlns="http://www.w3.org/2000/svg" viewBox="0 0 184.54 236.89">
  <defs>
    <style>
      .cls-1 {
        fill: #242424;
      }

      .cls-1, .cls-2, .cls-3, .cls-4, .cls-5, .cls-6 {
        stroke-width: 0px;
      }

      .cls-2 {
        fill: #c7e598;
      }

      .cls-3 {
        fill: #8ad0fb;
      }

      .cls-4 {
        fill: #ff97ba;
      }

      .cls-5 {
        fill: #fff;
      }

      .cls-6 {
        fill: #fbfa9d;
      }
    </style>
  </defs>
  <g id="Layer_1-2" data-name="Layer 1">
    <g>
      <path class="cls-1" d="m82.77.9c22.73-4.46,44.89,8.24,59.72,24.6,18.6,20.9,31.09,46.91,37.69,73.98,4.85,20.81,6.32,42.86.92,63.71-7.86,30.61-30.33,57.93-60.52,68.53-31.04,12.14-68.25,2.05-90.93-21.79C7.07,187.51-2.49,154.25.55,123,3.88,89.63,16.69,57.06,37.69,30.85,49.12,16.58,64.54,4.63,82.77.9Z"/>
      <g>
        <path class="cls-5" d="m77.28,77.64c-4.65,1.04-1.95,8.59,2.22,6.17,3.53-1.55,1.41-7.09-2.22-6.17Z"/>
        <path class="cls-5" d="m94.56,121.35c1.33-3.54-2.98-7.01-6.26-5.39-2.47,1.27-3.73,4.8-1.7,7.03,2.06,2.93,7.15,1.8,7.96-1.64Z"/>
        <path class="cls-2" d="m172.12,81.82c-1.58-3.62-2.15-8.1-5.61-10.49-5.69-4.32-11.75-8.65-18.83-10.27-2.9-.73-6.41.27-7.89,3.02-2.57,4.27-3.74,9.23-6.41,13.45-5.01,8.68-15.58,13.73-25.47,12.53-8.25-1.15-13.76-8-18.68-14.04-3.17-3.96-7.43-8.31-13.01-7.54-8.23,1.48-12.59,9.95-20.36,12.51-7.81,3.06-16.73-.67-21.85-6.86-4.61-5.66-5.65-13.11-8.91-19.47-3.88,6.31-6.85,13.11-9.75,19.9,19.22,13.09,42.23,19.93,65.26,21.88,31,1.97,62.89-2.18,91.51-14.6Zm-25.95-15.12c3.65-.96,7.34,3.25,5.73,6.74-1.16,3.56-6.67,4.4-8.69,1.18-2.18-2.77-.49-7.25,2.96-7.91Zm-69.17,19.07c-4.3-.63-5.49-7.22-1.52-9.17,2.69-1.7,6.71-.14,7.42,3.02,1.15,3.46-2.39,7.13-5.89,6.15Z"/>
        <path class="cls-5" d="m47.11,114.49c7.26,8.5,12.03,19.08,20.76,26.35,11.13,9.94,28.53,11.71,41.49,4.38,12.41-6.91,19.78-19.55,30.18-28.79,4.71-4.15,11.44-7.09,17.7-4.9,9.26,3.25,16.83,9.71,24.33,15.81-.64-4.37.52-10.22-3.96-12.85-5.92-4.28-12.19-8.38-19.24-10.5-6.86-2.09-14.27.02-20.06,3.91-11.63,7.91-18.29,21.15-29.94,29.02-10.18,7.5-25.49,6.85-35.07-1.37-9.58-7.94-14.09-20.17-23.1-28.61-5.07-4.91-13.05-5.97-19.41-3.13-10.78,4.49-17.81,14.41-27.64,20.37-.14,2.68-.24,5.37-.29,8.07,12.56-4.3,19.52-17.22,31.87-21.81,4.56-1.97,9.46.43,12.38,4.04Z"/>
        <path class="cls-3" d="m45.79,219.73c15.67,10.63,35.07,15.64,53.92,14.11,16.77-1.89,32.84-9.02,46-19.51-31.04,14.52-67.36,14.65-99.92,5.39Z"/>
        <path class="cls-5" d="m40.24,195.51c-1.88,1.26-1.79,4.4.25,5.45,2.01,1.47,5.3-.46,4.9-2.96,0-2.43-3.24-4.28-5.15-2.49Z"/>
        <path class="cls-6" d="m48.65,102.92c11.61,7.96,15.65,22.84,26.73,31.37,8.56,7.03,21.71,7.49,30.87,1.35,10.22-6.56,16.46-17.38,25.46-25.3,6.32-6.12,15.14-10.39,24.1-9.14,9.17,1.53,16.98,7.03,24.33,12.4-1.65-9.94-3.99-19.76-7.21-29.31-25.56,11.11-53.69,15.3-81.42,15.18-27.04-.4-54.36-7.39-77.09-22.34-5.48,14.12-9.25,28.96-10.86,44.03,8.93-5.83,15.62-14.86,25.6-19.11,6.16-2.75,13.73-2.93,19.5.87Zm38.61,11.03c3.67-1.69,8.59.34,9.5,4.41,1.7,5.12-4.19,10.31-9.09,8.14-5.38-1.8-5.71-10.45-.41-12.55Z"/>
        <path class="cls-3" d="m148.42,36.96c-5.09-6.69-10.92-12.76-17.12-18.44-4.11,5.87-11.68,1.84-16.62-.68.5,3.68,1.41,9.49-3.37,10.66-5.28,1.11-7.82-4.61-9.85-8.38-1.86,3.8-3.9,9.27-8.98,9.15-5.44-.17-7.36-6.09-7.77-10.61-2.73,2.88-5.96,6.74-10.43,5.71-4.09-1.76-3.64-6.69-2.4-10.16-3.99,1.34-8.87,3.22-12.43-.09-6.14,4.27-11.59,9.43-16.55,14.99,11.59,11.76,26.92,20.16,43.38,22.36,21.46,2.47,44.15-2.38,62.14-14.52Z"/>
        <path class="cls-5" d="m113.93,71.89c3.83-1.69.63-7.69-2.97-5.88-3.97,1.89-.86,8.11,2.97,5.88Z"/>
        <path class="cls-5" d="m150.5,71.91c.32-2.26-2.17-4.32-4.32-3.36-2.26.58-2.95,3.74-1.3,5.29,1.63,2.09,5.67.75,5.61-1.93Z"/>
        <path class="cls-4" d="m68.79,12.92c2.47-.62,4.9-1.6,7.24-2.57-.87,2.19-1.67,4.41-2.41,6.65-.48,1.47-.88,3.26.14,4.42.81.92,2.26,1.04,3.41.6,1.15-.44,2.07-1.31,2.95-2.17,2.22-2.14,4.43-4.29,6.65-6.43.27,2.35.08,4.74.45,7.08.36,2.34,1.41,4.74,3.45,5.93.65.38,1.39.62,2.14.57,1.01-.06,1.92-.62,2.67-1.29,3.08-2.79,3.72-7.34,5.98-10.82-.15.23,1.03,2.24,1.17,2.54.53,1.11.95,1.93,1.34,2.64.59,1.08,1.18,2.15,2.07,3.38,1.34,1.84,2,2.77,3.05,3.04,1.16.31,2.72,0,3.54-1,.53-.64.76-1.55,0-6.03-.5-2.93-.64-5.1-.7-5.8.38.72,3.27,2.21,3.77,2.48,1.35.73,2.78,1.31,4.25,1.71,4.27,1.16,7.85.61,9.6.22-3.35-3.26-15.13-13.91-33.28-15.09-19.42-1.27-35.31,9-34.95,10.36.19.69,4.84.23,7.46-.43Z"/>
        <path class="cls-5" d="m49.53,61.35c2.09,1.81,5.46-.31,5.17-2.93-.07-2.23-2.75-3.54-4.67-2.6-2.3.81-2.64,4.29-.5,5.53Z"/>
        <path class="cls-5" d="m54.49,79.14c7.88-2.57,12.33-11.06,20.63-12.76,5.2-1.09,10.29,1.71,13.56,5.6,5.54,6.14,10.53,14.22,19.3,15.86,9.05,1.13,18.72-3.44,23.33-11.39,2.83-4.4,3.96-9.66,6.9-13.98,1.89-2.9,5.55-4.41,8.94-3.79,7.29,1.24,13.46,5.59,19.32,9.85-2.42-4.08-3.25-9.88-8.18-11.75-6.1-3.14-13.9-5.58-20.22-1.63-8.5,5.29-7.85,17.41-15.69,23.33-5.11,3.76-12.78,5.86-18.34,1.83-6.85-4.92-10.4-13.41-18-17.44-6.47-3.75-14.89-2.38-20.69,2.04-4.97,3.22-8.78,8.96-15.13,9.44-5.14-.04-9.86-3.48-12.03-8.05-3.06-6.14-4.18-13.27-8.81-18.57-.96,1.65-1.89,3.33-2.8,5.01,3.65,6.51,4.53,14.4,9.44,20.23,4.41,5.11,11.8,8.33,18.48,6.16Z"/>
        <path class="cls-2" d="m51.45,71.95c5.52-1.85,8.99-6.99,13.94-9.85,7.05-4.72,17.05-4.96,23.99.12,6.23,4.34,9.76,11.44,15.73,16.05,4.93,3.71,11.77,1.59,16.26-1.82,4.58-3.83,5.84-9.97,8.46-15.07,2.47-5.29,7.37-9.68,13.3-10.4,5.87-.82,11.46,1.66,16.71,3.97-3.06-5.53-6.4-10.91-10.18-15.98-18.63,12.01-41.51,17.08-63.49,14.67-16.95-2.27-32.77-10.82-44.7-22.97-3.94,4.75-7.57,9.75-10.93,14.93,4.41,4.83,6.32,11.15,8.47,17.18,1.79,5.09,6.61,10.16,12.46,9.17Zm59.46-7.71c3.52-1.4,7.66,2.62,6.24,6.17-.77,3.54-5.8,4.84-8.27,2.25-2.73-2.41-1.58-7.59,2.03-8.42Zm-61.69-10.06c3.3-1.64,7.87,1.22,7.12,5.05.07,3.6-4.73,5.77-7.53,3.69-3.28-1.76-2.93-7.27.42-8.74Z"/>
        <path class="cls-5" d="m92.67,186.39c-3.84,1.1-2.6,7.28,1.49,6.4,4.51-.6,2.58-7.69-1.49-6.4Z"/>
        <path class="cls-5" d="m135.81,175.39c-10.84,4.45-16.11,15.89-24.8,23.13-9.86,9.66-26.55,9.94-37.5,1.99-6.72-4.92-10.39-12.6-15.61-18.87-3.73-4.61-9.33-7.8-15.3-8.01-10.47-.83-20.61,4.16-27.85,11.46,1.11,1.91,2.22,3.83,3.32,5.76,7.16-7.56,18.13-13.2,28.62-9.73,7.89,3.7,11.01,12.56,16.63,18.68,10.05,12.4,28.85,16.42,43.19,9.57,8.88-4.31,15.16-12.1,21.35-19.49,3.9-4.45,8.78-9.65,15.28-8.92,8.75.61,15.32,7.32,20.12,14.06,1.3-1.96,2.57-3.93,3.8-5.94-7.01-9.47-19.04-17.6-31.23-13.69Z"/>
        <path class="cls-4" d="m3.4,145.39c.99,12.97,4.64,25.67,10.27,37.39,9.49-8.99,23.75-14.6,36.53-9.67,12.81,5.18,15.63,21.24,27.61,27.51,7.69,3.93,17.36,4.51,25.21.69,11.19-5.66,16.65-17.83,26.48-25.14,7.3-5.48,17.58-4.89,25.37-.76,5.4,2.74,9.65,7.17,13.54,11.72,6-10.7,10.16-22.39,12.08-34.51-25.74,10-53.34,14.44-80.86,15.26-33.28,1.21-67.29-5.64-96.24-22.48Zm95.06,45.15c-.35,3.89-5.98,5.43-8.47,2.53-3.03-2.55-1.14-7.97,2.7-8.42,3.25-.75,6.43,2.68,5.77,5.89Z"/>
        <path class="cls-5" d="m154.27,131.88c-5.77.47-5.08,9.49.63,9.14,6.16.1,5.4-10-.63-9.14Z"/>
        <path class="cls-5" d="m32.98,131.3c-2.88,1.71-2.72,6.44.36,7.85,2.77,1.84,6.59-.62,6.68-3.77.2-3.45-4.12-6.23-7.04-4.08Z"/>
        <path class="cls-6" d="m181.75,130.55c-7.67-6.49-15.51-13.21-25.03-16.81-5.98-2.3-12.19,1.18-16.58,5.09-9.37,8.72-16.32,20.07-27.32,26.99-13.62,8.98-33.04,8.11-45.53-2.51-9.11-7.2-14.16-17.9-21.36-26.74-2.33-3.1-6.28-5.67-10.25-4.07-11.88,4.39-18.6,16.76-30.54,21.12-3.7.87-1.85,5.29-2.28,8.01,24.2,15.28,52.96,22.28,81.35,23.57,32.76.73,66.13-3.37,96.67-15.72.85-6.27,1.1-12.61.88-18.94Zm-139.57,5.56c-.41,5.02-7.32,7.79-11.02,4.28-4.35-3.15-2.71-10.89,2.67-11.79,4.45-1.45,9.12,3.03,8.36,7.52Zm119.27,1.1c-.27,4.9-6.55,7.82-10.5,4.92-4.32-2.47-3.96-9.91.73-11.76,4.53-2.67,10.64,1.73,9.77,6.84Z"/>
        <path class="cls-4" d="m143.14,183.26c-4.22-.62-7.9,2.03-10.65,4.9-6.52,6.81-11.87,14.87-19.77,20.23-15.45,10.98-39.03,7.76-50.99-6.94-5.39-5.77-8.32-14-15.4-18.04-9.84-3.48-20.59,2.05-26.86,9.65,5.75,7.91,11.81,16.05,19.97,21.59,18.88,8.03,39.84,9.61,60.15,8.87,17.11-1.05,34.18-5.32,49.33-13.45,5.61-2.8,9.14-8.2,12.9-12.98-4.37-6.47-10.39-13.15-18.67-13.82Zm-98.67,19.31c-5.74,3.31-10.61-6.51-4.41-8.95,5.62-2.92,10.11,6.36,4.41,8.95Zm104.56-8.6c-.56,3.64-5.63,5.44-8.21,2.71-2.95-2.28-1.8-7.42,1.7-8.49,3.45-1.35,7.33,2.21,6.52,5.77Z"/>
        <path class="cls-5" d="m142.59,190.04c-3.58,1.91-.81,7.81,2.92,5.84,4.12-1.48.79-7.87-2.92-5.84Z"/>
      </g>
    </g>
  </g>
</svg>