<svg width="352" height="353" xmlns="http://www.w3.org/2000/svg" xmlns:xlink="http://www.w3.org/1999/xlink" xml:space="preserve" overflow="hidden"><g transform="translate(-2024 -1061)"><path d="M2200 1083.56C2284.76 1083.56 2353.47 1152.48 2353.47 1237.5 2353.47 1322.52 2284.76 1391.44 2200 1391.44 2115.24 1391.44 2046.53 1322.52 2046.53 1237.5 2046.63 1152.52 2115.28 1083.65 2200 1083.56M2200 1075C2110.53 1075 2038 1147.75 2038 1237.5 2038 1327.25 2110.53 1400 2200 1400 2289.47 1400 2362 1327.25 2362 1237.5 2362.04 1147.79 2289.58 1075.04 2200.15 1075 2200.1 1075 2200.05 1075 2200 1075Z" stroke="#FFFFFF" stroke-width="27.5001" stroke-miterlimit="8" fill="#FFFFFF" fill-rule="evenodd"/><path d="M2203.46 1278 2196.54 1278 2196.54 1237.76 2200 1237.76C2223.24 1237.76 2242.08 1218.99 2242.08 1195.83 2242.08 1172.67 2223.24 1153.9 2200 1153.89 2176.76 1153.89 2157.92 1172.66 2157.92 1195.82 2157.92 1195.82 2157.92 1195.83 2157.92 1195.83L2151 1195.83C2151 1168.86 2172.94 1147 2200 1147 2227.06 1147 2249 1168.86 2249 1195.83 2249 1221.46 2229.11 1242.73 2203.46 1244.53Z" stroke="#FFFFFF" stroke-width="27.5001" stroke-miterlimit="8" fill="#FFFFFF" fill-rule="evenodd"/><path d="M2207 1321C2207 1324.87 2203.87 1328 2200 1328 2196.13 1328 2193 1324.87 2193 1321 2193 1317.13 2196.13 1314 2200 1314 2203.87 1314 2207 1317.13 2207 1321Z" stroke="#FFFFFF" stroke-width="27.5001" stroke-miterlimit="8" fill="#FFFFFF" fill-rule="evenodd"/></g></svg>